<svg width="24" height="24" viewBox="0 0 24 24" fill="none" xmlns="https://www.w3.org/2000/svg">
<path d="M7.58214 19.75H4.26429V9.23477H7.58214V19.75ZM5.92143 7.80039C4.86071 7.80039 4 6.93555 4 5.89141C4 5.38977 4.20244 4.90869 4.56277 4.55398C4.92311 4.19927 5.41183 4 5.92143 4C6.43102 4 6.91975 4.19927 7.28008 4.55398C7.64042 4.90869 7.84286 5.38977 7.84286 5.89141C7.84286 6.93555 6.98214 7.80039 5.92143 7.80039ZM19.9964 19.75H16.6857V14.6312C16.6857 13.4113 16.6607 11.8469 14.9607 11.8469C13.2357 11.8469 12.9714 13.1723 12.9714 14.5434V19.75H9.65714V9.23477H12.8393V10.6691H12.8857C13.3286 9.84297 14.4107 8.97109 16.025 8.97109C19.3821 8.97109 20 11.1473 20 13.9738V19.75H19.9964Z" fill="#486656"/>
</svg>
