<svg width="28" height="28" viewBox="0 0 28 28" fill="none" xmlns="https://www.w3.org/2000/svg">
<g clip-path="url(#clip0_831_1002)">
<path d="M13.4167 17.0095C11.0352 17.0095 9.08979 15.0753 9.08979 12.6826C9.08979 10.29 11.0352 8.36694 13.4167 8.36694C15.7981 8.36694 17.7435 10.3012 17.7435 12.6938C17.7435 15.0865 15.7981 17.0095 13.4167 17.0095ZM13.4167 10.044C11.9632 10.044 10.7669 11.2292 10.7669 12.6938C10.7669 14.1585 11.952 15.3436 13.4167 15.3436C14.8813 15.3436 16.0665 14.1585 16.0665 12.6938C16.0665 11.2292 14.8701 10.044 13.4167 10.044Z" fill="#292D32"/>
<path d="M13.4167 26.6136C11.7619 26.6136 10.096 25.9875 8.79909 24.7465C5.50082 21.5712 1.85596 16.5064 3.23117 10.4801C4.47221 5.01277 9.24631 2.56423 13.4167 2.56423C13.4167 2.56423 13.4167 2.56423 13.4278 2.56423C17.5982 2.56423 22.3723 5.01277 23.6133 10.4912C24.9774 16.5176 21.3325 21.5712 18.0342 24.7465C16.7373 25.9875 15.0714 26.6136 13.4167 26.6136ZM13.4167 4.24132C10.1631 4.24132 5.98159 5.9743 4.87471 10.849C3.66721 16.1151 6.97666 20.6544 9.97305 23.5278C11.9073 25.3949 14.9372 25.3949 16.8715 23.5278C19.8567 20.6544 23.1661 16.1151 21.981 10.849C20.8629 5.9743 16.6702 4.24132 13.4167 4.24132Z" fill="#292D32"/>
</g>
<defs>
<clipPath id="clip0_831_1002">
<rect width="28" height="28" fill="white"/>
</clipPath>
</defs>
</svg>
